<svg width="4" height="16" viewBox="0 0 4 16" fill="none" xmlns="http://www.w3.org/2000/svg">
<path d="M1.84615 3.69231C2.86575 3.69231 3.69231 2.86576 3.69231 1.84616C3.69231 0.826558 2.86575 7.62939e-06 1.84615 7.62939e-06C0.826551 7.62939e-06 0 0.826558 0 1.84616C0 2.86576 0.826551 3.69231 1.84615 3.69231Z" fill="#B8B8B8"/>
<path d="M1.84615 9.84615C2.86575 9.84615 3.69231 9.0196 3.69231 8C3.69231 6.9804 2.86575 6.15385 1.84615 6.15385C0.826551 6.15385 0 6.9804 0 8C0 9.0196 0.826551 9.84615 1.84615 9.84615Z" fill="#B8B8B8"/>
<path d="M1.84615 16C2.86575 16 3.69231 15.1734 3.69231 14.1538C3.69231 13.1342 2.86575 12.3077 1.84615 12.3077C0.826551 12.3077 0 13.1342 0 14.1538C0 15.1734 0.826551 16 1.84615 16Z" fill="#B8B8B8"/>
</svg>
