<svg width="12" height="13" viewBox="0 0 12 13" fill="none" xmlns="http://www.w3.org/2000/svg">
<path d="M3.6941 0.829268H1.4734C0.982817 0.829268 0.585121 1.22696 0.585121 1.71755V11.4886C0.585121 11.9792 0.982817 12.3769 1.4734 12.3769H3.6941C4.18468 12.3769 4.58238 11.9792 4.58238 11.4886V1.71755C4.58238 1.22696 4.18468 0.829268 3.6941 0.829268Z" fill="white"/>
<path d="M10.2822 0.829313H8.06148C7.5709 0.829313 7.1732 1.22701 7.1732 1.71759V11.4887C7.1732 11.9792 7.5709 12.3769 8.06148 12.3769H10.2822C10.7728 12.3769 11.1705 11.9792 11.1705 11.4887V1.71759C11.1705 1.22701 10.7728 0.829313 10.2822 0.829313Z" fill="white"/>
</svg>
