<svg width="18" height="18" viewBox="0 0 18 18" fill="none" xmlns="http://www.w3.org/2000/svg">
<path d="M6.53832 17L3.4614 13.9231L6.53832 10.8462" stroke="url(#paint0_linear_1_10)" stroke-width="1.5" stroke-linecap="round" stroke-linejoin="round"/>
<path d="M16.9999 10.2308V12.6924C16.9999 13.0188 16.8702 13.3318 16.6394 13.5627C16.4086 13.7935 16.0955 13.9231 15.7691 13.9231L3.4614 13.9231" stroke="url(#paint1_linear_1_10)" stroke-width="1.5" stroke-linecap="round" stroke-linejoin="round"/>
<path d="M11.4616 1.00011L14.5386 4.07703L11.4616 7.15395" stroke="url(#paint2_linear_1_10)" stroke-width="1.5" stroke-linecap="round" stroke-linejoin="round"/>
<path d="M1 7.7693L1 5.30776C1 4.98134 1.12967 4.66829 1.36048 4.43748C1.5913 4.20666 1.90435 4.07699 2.23077 4.07699L14.5385 4.07699" stroke="url(#paint3_linear_1_10)" stroke-width="1.5" stroke-linecap="round" stroke-linejoin="round"/>
<defs>
<linearGradient id="paint0_linear_1_10" x1="2.98802" y1="17.7934" x2="4.07117" y2="8.96158" gradientUnits="userSpaceOnUse">
<stop stop-color="#B5179E"/>
<stop offset="1" stop-color="#7209B7"/>
</linearGradient>
<linearGradient id="paint1_linear_1_10" x1="1.37855" y1="14.3992" x2="1.46848" y2="9.02189" gradientUnits="userSpaceOnUse">
<stop stop-color="#B5179E"/>
<stop offset="1" stop-color="#7209B7"/>
</linearGradient>
<linearGradient id="paint2_linear_1_10" x1="10.9883" y1="7.94737" x2="12.0714" y2="-0.88447" gradientUnits="userSpaceOnUse">
<stop stop-color="#B5179E"/>
<stop offset="1" stop-color="#7209B7"/>
</linearGradient>
<linearGradient id="paint3_linear_1_10" x1="-1.08285" y1="8.24535" x2="-0.992917" y2="2.86805" gradientUnits="userSpaceOnUse">
<stop stop-color="#B5179E"/>
<stop offset="1" stop-color="#7209B7"/>
</linearGradient>
</defs>
</svg>
