<svg width="21" height="21" viewBox="0 0 21 21" fill="none" xmlns="http://www.w3.org/2000/svg">
<path d="M4.25328 13.6517C6.05002 13.6517 7.50656 12.1951 7.50656 10.3984C7.50656 8.60167 6.05002 7.14513 4.25328 7.14513C2.45654 7.14513 1 8.60167 1 10.3984C1 12.1951 2.45654 13.6517 4.25328 13.6517Z" stroke="#7A7A7A" stroke-width="1.5" stroke-linecap="round" stroke-linejoin="round"/>
<path d="M16.5435 19.7967C18.3403 19.7967 19.7968 18.3402 19.7968 16.5434C19.7968 14.7467 18.3403 13.2902 16.5435 13.2902C14.7468 13.2902 13.2903 14.7467 13.2903 16.5434C13.2903 18.3402 14.7468 19.7967 16.5435 19.7967Z" stroke="#7A7A7A" stroke-width="1.5" stroke-linecap="round" stroke-linejoin="round"/>
<path d="M16.5435 7.50656C18.3403 7.50656 19.7968 6.05002 19.7968 4.25328C19.7968 2.45654 18.3403 1 16.5435 1C14.7468 1 13.2903 2.45654 13.2903 4.25328C13.2903 6.05002 14.7468 7.50656 16.5435 7.50656Z" stroke="#7A7A7A" stroke-width="1.5" stroke-linecap="round" stroke-linejoin="round"/>
<path d="M7.15965 8.95245L13.6373 5.69917" stroke="#7A7A7A" stroke-width="1.5" stroke-linecap="round" stroke-linejoin="round"/>
<path d="M7.15965 11.8443L13.6373 15.0976" stroke="#7A7A7A" stroke-width="1.5" stroke-linecap="round" stroke-linejoin="round"/>
</svg>
